<svg xmlns="http://www.w3.org/2000/svg" viewBox="0 0 400 300">
  <rect width="400" height="300" fill="#eff6ff"/>
  <!-- house shell -->
  <path d="M60 150l140 -90 140 90v120a10 10 0 0 1 -10 10H70a10 10 0 0 1 -10 -10z" fill="#ffffff" stroke="#2563eb" stroke-width="6"/>
  <path d="M40 160l160 -105 160 105" fill="none" stroke="#2563eb" stroke-width="10" stroke-linecap="round" stroke-linejoin="round"/>
  <!-- closed window -->
  <rect x="95" y="175" width="70" height="60" rx="4" fill="#dbeafe" stroke="#1d4ed8" stroke-width="4"/>
  <line x1="130" y1="175" x2="130" y2="235" stroke="#1d4ed8" stroke-width="4"/>
  <line x1="95" y1="205" x2="165" y2="205" stroke="#1d4ed8" stroke-width="4"/>
  <!-- air purifier -->
  <rect x="230" y="185" width="45" height="70" rx="8" fill="#334155"/>
  <rect x="238" y="196" width="29" height="10" rx="3" fill="#22c55e"/>
  <g opacity="0.7" stroke="#22c55e" stroke-width="3" fill="none" stroke-linecap="round">
    <path d="M252 178c-10 -10 -6 -22 0 -28"/>
    <path d="M264 182c4 -12 -2 -24 -10 -28"/>
  </g>
  <!-- plant -->
  <rect x="185" y="238" width="26" height="22" rx="3" fill="#f97316"/>
  <path d="M198 238c0 -20 -18 -26 -24 -22 -2 14 12 24 24 22z" fill="#22c55e"/>
  <path d="M198 238c0 -18 16 -26 22 -22 2 14 -10 24 -22 22z" fill="#16a34a"/>
</svg>
